<svg width="69" height="61" viewBox="0 0 69 61" fill="none" xmlns="http://www.w3.org/2000/svg">
<rect x="7.59131" y="7.86768" width="53.1325" height="53.1325" fill="white" fill-opacity="0.85"/>
<rect x="7.59131" y="7.86768" width="26.5663" height="53.1325" fill="white" fill-opacity="0.9"/>
<rect x="60.7236" y="22.2891" width="7.59036" height="23.5301" fill="white"/>
<rect x="60.7227" width="7.59036" height="7.59036" fill="white"/>
<rect y="22.2891" width="7.59036" height="23.5301" fill="white" fill-opacity="0.85"/>
<rect width="7.59036" height="7.59036" fill="white"/>
<rect width="5.31325" height="18.2169" transform="matrix(4.37114e-08 -1 -1 -4.37114e-08 53.8916 27.6025)" fill="#FF4141"/>
<rect width="5.31325" height="18.2169" transform="matrix(4.37114e-08 -1 -1 -4.37114e-08 32.6387 27.6025)" fill="#FF4141"/>
<rect width="3.79518" height="10.6265" transform="matrix(4.37114e-08 -1 -1 -4.37114e-08 50.0977 31.3975)" fill="#FF4141"/>
<rect width="3.79518" height="10.6265" transform="matrix(4.37114e-08 -1 -1 -4.37114e-08 28.8447 31.3975)" fill="#FF4141"/>
<rect width="5.31325" height="5.31325" transform="matrix(4.37114e-08 -1 -1 -4.37114e-08 40.9888 27.6025)" fill="black" style="mix-blend-mode:multiply"/>
<rect width="5.31325" height="5.31325" transform="matrix(4.37114e-08 -1 -1 -4.37114e-08 19.7358 27.6025)" fill="black" style="mix-blend-mode:multiply"/>
<rect width="3.79518" height="21.253" transform="matrix(4.37114e-08 -1 -1 -4.37114e-08 44.7827 45.8193)" fill="#FF4141"/>
<rect width="3.79518" height="3.79518" transform="matrix(4.37114e-08 -1 -1 -4.37114e-08 23.5298 49.6143)" fill="#FF4141"/>
<rect width="3.79518" height="3.79518" transform="matrix(4.37114e-08 -1 -1 -4.37114e-08 48.5767 49.6143)" fill="#FF4141"/>
</svg>
