<svg width="61" height="58" viewBox="0 0 61 58" fill="none" xmlns="http://www.w3.org/2000/svg">
<rect x="6" width="48" height="58" fill="#9DD28A"/>
<rect x="6" width="24" height="54" fill="#CFF366"/>
<rect x="39" y="36" width="2" height="2" fill="#CFF366"/>
<rect x="42" y="39" width="2" height="2" fill="#CFF366"/>
<rect x="45" y="36" width="2" height="2" fill="#CFF366"/>
<rect x="45" y="42" width="2" height="2" fill="#CFF366"/>
<rect x="39" y="42" width="2" height="2" fill="#CFF366"/>
<rect x="54" y="20" width="7" height="20" fill="#FEAB98"/>
<rect x="27" y="23" width="6" height="17" fill="#FEAB98"/>
<rect y="20" width="6" height="20" fill="#FEAB98"/>
<rect width="5" height="5" transform="matrix(4.39629e-08 -1 -1 -4.34613e-08 43 25)" fill="black" style="mix-blend-mode:multiply"/>
<path d="M22 25L22 20L17 20L17 25L22 25Z" fill="black" style="mix-blend-mode:multiply"/>
<path d="M10 29L10 17L6 17L6 29L10 29Z" fill="black" style="mix-blend-mode:multiply"/>
<path d="M36 29L36 17L32 17L32 29L36 29Z" fill="black" style="mix-blend-mode:multiply"/>
<path d="M28 29L28 17L24 17L24 29L28 29Z" fill="black" style="mix-blend-mode:multiply"/>
<path d="M54 29L54 17L50 17L50 29L54 29Z" fill="black" style="mix-blend-mode:multiply"/>
<path d="M24 17L24 13L10 13L10 17L24 17Z" fill="black" style="mix-blend-mode:multiply"/>
<path d="M7 20L7 17L1.31889e-07 17L0 20L7 20Z" fill="black" style="mix-blend-mode:multiply"/>
<path d="M61 20L61 17L54 17L54 20L61 20Z" fill="black" style="mix-blend-mode:multiply"/>
<path d="M35 23L35 20L26 20L26 23L35 23Z" fill="black" style="mix-blend-mode:multiply"/>
<path d="M50 17L50 13L36 13L36 17L50 17Z" fill="black" style="mix-blend-mode:multiply"/>
<path d="M24 33L24 29L10 29L10 33L24 33Z" fill="black" style="mix-blend-mode:multiply"/>
<path d="M50 33L50 29L36 29L36 33L50 33Z" fill="black" style="mix-blend-mode:multiply"/>
<rect width="4" height="11" transform="matrix(4.39629e-08 -1 -1 -4.34613e-08 34 49)" fill="#9DD28A"/>
<rect width="2" height="2" transform="matrix(4.39629e-08 -1 -1 -4.34613e-08 15 38)" fill="#9DD28A"/>
<rect width="2" height="2" transform="matrix(4.39629e-08 -1 -1 -4.34613e-08 15 44)" fill="#9DD28A"/>
<rect width="2" height="2" transform="matrix(4.39629e-08 -1 -1 -4.34613e-08 18 41)" fill="#9DD28A"/>
<rect width="2" height="2" transform="matrix(4.39629e-08 -1 -1 -4.34613e-08 21 38)" fill="#9DD28A"/>
<rect width="2" height="2" transform="matrix(4.39629e-08 -1 -1 -4.34613e-08 21 44)" fill="#9DD28A"/>
<rect width="4" height="24" transform="matrix(4.39629e-08 -1 -1 -4.34613e-08 54 4)" fill="#CFF366"/>
<rect x="6" y="54" width="4" height="4" fill="#ECF5EE"/>
<rect x="50" y="54" width="4" height="4" fill="#ECF5EE"/>
</svg>
