<svg width="198" height="90" viewBox="0 0 198 90" fill="none" xmlns="http://www.w3.org/2000/svg">
<rect x="42.5" y="6.5" width="5" height="17" fill="#ECF5EE" stroke="#252926"/>
<rect x="-0.5" y="0.5" width="5" height="20" transform="matrix(-1 0 0 1 5 6)" fill="#ECF5EE" stroke="#252926"/>
<rect x="37.5" y="6.5" width="5" height="11" fill="#ECF5EE" stroke="#252926"/>
<rect x="-0.5" y="0.5" width="5" height="11" transform="matrix(-1 0 0 1 10 6)" fill="#ECF5EE" stroke="#252926"/>
<rect x="107.5" y="43.5" width="5" height="5" transform="rotate(-90 107.5 43.5)" fill="#ECF5EE" stroke="#252926"/>
<rect x="47.5" y="86.5" width="5" height="27" transform="rotate(180 47.5 86.5)" fill="#252926" stroke="#252926"/>
<rect x="93.5" y="86.5" width="5" height="27" transform="rotate(180 93.5 86.5)" fill="#252926" stroke="#252926"/>
<rect x="5.5" y="17.5" width="37" height="35" fill="#ECF5EE" stroke="#252926"/>
<rect x="42.5" y="38.5" width="65" height="33" fill="#ECF5EE" stroke="#252926"/>
<rect x="107.5" y="10.5" width="5" height="5" stroke="#252926"/>
<rect x="113.5" y="16.5" width="5" height="21" fill="#ECF5EE" stroke="#252926"/>
<rect x="59.5" y="86.5" width="5" height="27" transform="rotate(180 59.5 86.5)" fill="#ECF5EE" stroke="#252926"/>
<rect x="107.5" y="86.5" width="5" height="27" transform="rotate(180 107.5 86.5)" fill="#ECF5EE" stroke="#252926"/>
<rect x="39.5" y="0.5" width="6" height="6" fill="#ECF5EE" stroke="#252926"/>
<rect x="101.5" y="4.5" width="5" height="5" fill="#ECF5EE" stroke="#252926"/>
<rect x="95.5" y="10.5" width="5" height="5" stroke="#252926"/>
<rect x="8" y="26" width="14" height="10" fill="#252926"/>
<rect x="17" y="30" width="3" height="3" fill="#ECF5EE"/>
<rect x="22" y="36" width="4" height="6" fill="#252926"/>
<rect x="18" y="42" width="4" height="4" fill="#252926"/>
<rect x="26" y="42" width="4" height="4" fill="#252926"/>
<rect x="102" y="44" width="6" height="6" fill="#252926"/>
<rect x="102" y="82" width="6" height="5" fill="#252926"/>
<rect x="26" y="26" width="14" height="10" fill="#252926"/>
<rect x="-0.5" y="0.5" width="6" height="6" transform="matrix(-1 0 0 1 8 0)" fill="#ECF5EE" stroke="#252926"/>
<rect x="29" y="30" width="3" height="3" fill="#ECF5EE"/>
<rect x="163" y="90" width="6" height="6" transform="rotate(-90 163 90)" fill="#252926"/>
<rect x="170" y="81" width="7" height="14" transform="rotate(-90 170 81)" fill="#252926"/>
<rect x="177" y="87" width="6" height="21" transform="rotate(-90 177 87)" fill="#252926"/>
</svg>
