<svg width="70" height="79" viewBox="0 0 70 79" fill="none" xmlns="http://www.w3.org/2000/svg">
<rect y="16" width="54" height="55" fill="#252926"/>
<rect width="9" height="16" fill="#363C37"/>
<rect y="16" width="27" height="55" fill="#616A63"/>
<rect x="54" y="16" width="16" height="8" fill="#616A63"/>
<rect width="15" height="21" transform="matrix(5.46392e-08 -1 -1 -3.49691e-08 48 43)" fill="#59C4CB"/>
<rect width="15" height="21" transform="matrix(5.46392e-08 -1 -1 -3.49691e-08 27 43)" fill="#96EDF2"/>
<rect width="4" height="4" transform="matrix(3.27835e-08 -1 -1 -5.82819e-08 16 57)" fill="#FF5151"/>
<rect width="4" height="4" transform="matrix(3.27835e-08 -1 -1 -5.82819e-08 42 57)" fill="#D64444"/>
<rect width="7" height="22" transform="matrix(3.27835e-08 -1 -1 -5.82819e-08 38 63)" fill="#FF5151"/>
<rect width="7" height="11" transform="matrix(3.27835e-08 -1 -1 -5.82819e-08 38 63)" fill="#D64444"/>
<rect width="7" height="7" transform="matrix(3.27835e-08 -1 -1 -5.82819e-08 20 39)" fill="black" style="mix-blend-mode:multiply"/>
<rect width="7" height="7" transform="matrix(3.27835e-08 -1 -1 -5.82819e-08 41 39)" fill="black" style="mix-blend-mode:multiply"/>
<rect width="7" height="8" transform="matrix(3.27835e-08 -1 -1 -5.82819e-08 31 50)" fill="#FF5151"/>
<rect width="4" height="2" transform="matrix(2.76072e-08 -1 -1 -6.92097e-08 20 61)" fill="#ECF5EE"/>
<rect width="3" height="2" transform="matrix(2.76072e-08 -1 -1 -6.92097e-08 23 60)" fill="#ECF5EE"/>
<rect width="3" height="2" transform="matrix(2.76072e-08 -1 -1 -6.92097e-08 26 60)" fill="#ECF5EE"/>
<rect width="3" height="2" transform="matrix(2.76072e-08 -1 -1 -6.92097e-08 30 60)" fill="#ECF5EE"/>
<rect width="3" height="2" transform="matrix(2.76072e-08 -1 -1 -6.92097e-08 33 60)" fill="#ECF5EE"/>
<rect width="4" height="2" transform="matrix(2.76072e-08 -1 -1 -6.92097e-08 36 61)" fill="#ECF5EE"/>
<rect width="7" height="4" transform="matrix(3.27835e-08 -1 -1 -5.82819e-08 31 50)" fill="#D64444"/>
<path fill-rule="evenodd" clip-rule="evenodd" d="M34 77L34 60L20 60V77H22V79H32V77H34Z" fill="#E0B8FF"/>
<path fill-rule="evenodd" clip-rule="evenodd" d="M32 79H27V60H34L34 77H32V79Z" fill="#8B62FF"/>
<rect x="20" y="60" width="14" height="2" fill="#D9D9D9" style="mix-blend-mode:multiply"/>
</svg>
