<svg width="826" height="2" viewBox="0 0 826 2" fill="none" xmlns="http://www.w3.org/2000/svg">
<rect x="216" width="2" height="2" fill="#252926"/>
<rect x="88" width="2" height="2" fill="#252926"/>
<rect x="344" width="2" height="2" fill="#252926"/>
<rect x="224" width="2" height="2" fill="#252926"/>
<rect x="96" width="2" height="2" fill="#252926"/>
<rect x="352" width="2" height="2" fill="#252926"/>
<rect x="232" width="2" height="2" fill="#252926"/>
<rect x="104" width="2" height="2" fill="#252926"/>
<rect x="360" width="2" height="2" fill="#252926"/>
<rect x="240" width="2" height="2" fill="#252926"/>
<rect x="112" width="2" height="2" fill="#252926"/>
<rect x="368" width="2" height="2" fill="#252926"/>
<rect x="248" width="2" height="2" fill="#252926"/>
<rect x="120" width="2" height="2" fill="#252926"/>
<rect x="376" width="2" height="2" fill="#252926"/>
<rect width="2" height="2" fill="#252926"/>
<rect x="256" width="2" height="2" fill="#252926"/>
<rect x="128" width="2" height="2" fill="#252926"/>
<rect x="384" width="2" height="2" fill="#252926"/>
<rect x="8" width="2" height="2" fill="#252926"/>
<rect x="264" width="2" height="2" fill="#252926"/>
<rect x="136" width="2" height="2" fill="#252926"/>
<rect x="392" width="2" height="2" fill="#252926"/>
<rect x="16" width="2" height="2" fill="#252926"/>
<rect x="272" width="2" height="2" fill="#252926"/>
<rect x="144" width="2" height="2" fill="#252926"/>
<rect x="400" width="2" height="2" fill="#252926"/>
<rect x="24" width="2" height="2" fill="#252926"/>
<rect x="280" width="2" height="2" fill="#252926"/>
<rect x="152" width="2" height="2" fill="#252926"/>
<rect x="408" width="2" height="2" fill="#252926"/>
<rect x="32" width="2" height="2" fill="#252926"/>
<rect x="288" width="2" height="2" fill="#252926"/>
<rect x="160" width="2" height="2" fill="#252926"/>
<rect x="40" width="2" height="2" fill="#252926"/>
<rect x="296" width="2" height="2" fill="#252926"/>
<rect x="168" width="2" height="2" fill="#252926"/>
<rect x="48" width="2" height="2" fill="#252926"/>
<rect x="304" width="2" height="2" fill="#252926"/>
<rect x="176" width="2" height="2" fill="#252926"/>
<rect x="56" width="2" height="2" fill="#252926"/>
<rect x="312" width="2" height="2" fill="#252926"/>
<rect x="184" width="2" height="2" fill="#252926"/>
<rect x="64" width="2" height="2" fill="#252926"/>
<rect x="320" width="2" height="2" fill="#252926"/>
<rect x="192" width="2" height="2" fill="#252926"/>
<rect x="72" width="2" height="2" fill="#252926"/>
<rect x="328" width="2" height="2" fill="#252926"/>
<rect x="200" width="2" height="2" fill="#252926"/>
<rect x="80" width="2" height="2" fill="#252926"/>
<rect x="336" width="2" height="2" fill="#252926"/>
<rect x="208" width="2" height="2" fill="#252926"/>
<rect x="632" width="2" height="2" fill="#252926"/>
<rect x="504" width="2" height="2" fill="#252926"/>
<rect x="760" width="2" height="2" fill="#252926"/>
<rect x="640" width="2" height="2" fill="#252926"/>
<rect x="512" width="2" height="2" fill="#252926"/>
<rect x="768" width="2" height="2" fill="#252926"/>
<rect x="648" width="2" height="2" fill="#252926"/>
<rect x="520" width="2" height="2" fill="#252926"/>
<rect x="776" width="2" height="2" fill="#252926"/>
<rect x="656" width="2" height="2" fill="#252926"/>
<rect x="528" width="2" height="2" fill="#252926"/>
<rect x="784" width="2" height="2" fill="#252926"/>
<rect x="664" width="2" height="2" fill="#252926"/>
<rect x="536" width="2" height="2" fill="#252926"/>
<rect x="792" width="2" height="2" fill="#252926"/>
<rect x="416" width="2" height="2" fill="#252926"/>
<rect x="672" width="2" height="2" fill="#252926"/>
<rect x="544" width="2" height="2" fill="#252926"/>
<rect x="800" width="2" height="2" fill="#252926"/>
<rect x="424" width="2" height="2" fill="#252926"/>
<rect x="680" width="2" height="2" fill="#252926"/>
<rect x="552" width="2" height="2" fill="#252926"/>
<rect x="808" width="2" height="2" fill="#252926"/>
<rect x="432" width="2" height="2" fill="#252926"/>
<rect x="688" width="2" height="2" fill="#252926"/>
<rect x="560" width="2" height="2" fill="#252926"/>
<rect x="816" width="2" height="2" fill="#252926"/>
<rect x="440" width="2" height="2" fill="#252926"/>
<rect x="696" width="2" height="2" fill="#252926"/>
<rect x="568" width="2" height="2" fill="#252926"/>
<rect x="824" width="2" height="2" fill="#252926"/>
<rect x="448" width="2" height="2" fill="#252926"/>
<rect x="704" width="2" height="2" fill="#252926"/>
<rect x="576" width="2" height="2" fill="#252926"/>
<rect x="456" width="2" height="2" fill="#252926"/>
<rect x="712" width="2" height="2" fill="#252926"/>
<rect x="584" width="2" height="2" fill="#252926"/>
<rect x="464" width="2" height="2" fill="#252926"/>
<rect x="720" width="2" height="2" fill="#252926"/>
<rect x="592" width="2" height="2" fill="#252926"/>
<rect x="472" width="2" height="2" fill="#252926"/>
<rect x="728" width="2" height="2" fill="#252926"/>
<rect x="600" width="2" height="2" fill="#252926"/>
<rect x="480" width="2" height="2" fill="#252926"/>
<rect x="736" width="2" height="2" fill="#252926"/>
<rect x="608" width="2" height="2" fill="#252926"/>
<rect x="488" width="2" height="2" fill="#252926"/>
<rect x="744" width="2" height="2" fill="#252926"/>
<rect x="616" width="2" height="2" fill="#252926"/>
<rect x="496" width="2" height="2" fill="#252926"/>
<rect x="752" width="2" height="2" fill="#252926"/>
<rect x="624" width="2" height="2" fill="#252926"/>
</svg>
