<svg width="54" height="54" viewBox="0 0 54 54" fill="none" xmlns="http://www.w3.org/2000/svg">
<rect width="54" height="54" fill="#72E968"/>
<rect x="27" width="27" height="40" fill="#46C40B"/>
<rect y="38" width="54" height="16" fill="#252926"/>
<rect x="8" y="27" width="27" height="21" fill="#FFB800"/>
<rect x="35" y="25" width="2" height="23" fill="#F05F0D"/>
<rect x="37" y="23" width="2" height="23" fill="#F05F0D"/>
<rect x="41" y="19" width="2" height="23" fill="#F05F0D"/>
<rect x="43" y="17" width="2" height="23" fill="#F05F0D"/>
<rect x="10" y="25" width="25" height="2" fill="#FFEC45"/>
<rect x="12" y="23" width="25" height="2" fill="#FFEC45"/>
<rect x="14" y="21" width="25" height="2" fill="#FFEC45"/>
<rect x="18" y="17" width="25" height="2" fill="#FFEC45"/>
<rect x="16" y="19" width="25" height="2" fill="#FFEC45"/>
<rect x="17" y="27" width="5" height="21" fill="#FF39F7"/>
<rect x="20" y="25" width="5" height="2" fill="#FF39F7"/>
<rect x="29" y="13" width="16" height="6" fill="#FF39F7"/>
<rect x="33" y="7" width="4" height="6" fill="#FF39F7"/>
<rect x="37" width="12" height="7" fill="#FF39F7"/>
<rect x="19" y="6" width="4" height="7" fill="#FF39F7"/>
<rect x="11" width="8" height="6" fill="#D38EFE"/>
<rect x="7" y="6" width="4" height="7" fill="#D38EFE"/>
<rect x="11" y="13" width="16" height="6" fill="#FF39F7"/>
<rect x="23" y="23" width="5" height="2" fill="#FF39F7"/>
<rect x="26" y="19" width="5" height="2" fill="#FF39F7"/>
<rect x="29" y="17" width="4" height="2" fill="#FF39F7"/>
<rect x="14" y="21" width="27" height="2" fill="#FF39F7"/>
<rect x="39" y="23" width="2" height="21" fill="#FF39F7"/>
<rect x="45" width="4" height="13" fill="#D38EFE"/>
</svg>
