<svg width="87" height="371" viewBox="0 0 87 371" fill="none" xmlns="http://www.w3.org/2000/svg">
<path d="M17 364.5H11.5V98.5H80.5V364.5H75H74.5V365V370.5H17.5V365V364.5H17Z" stroke="#252926"/>
<rect x="17.5" y="104.5" width="5" height="254" stroke="#252926"/>
<rect x="11.5" y="71.5" width="40" height="23" stroke="#252926"/>
<rect x="11.5" y="77.5" width="11" height="3" stroke="#252926"/>
<rect x="5.5" y="95.5" width="11" height="2" fill="#252926" stroke="#252926"/>
<rect x="54.5" y="87.5" width="20" height="7" stroke="#252926"/>
<rect x="54.5" y="80.5" width="32" height="7" stroke="#252926"/>
<rect x="11.5" y="83.5" width="11" height="3" stroke="#252926"/>
<rect x="18" y="42" width="6" height="6" fill="#FF5151"/>
<rect x="12" y="42" width="6" height="6" fill="#FF8933"/>
<rect x="6" y="36" width="6" height="6" fill="#FF8933"/>
<rect x="6" y="42" width="6" height="6" fill="#FF5151"/>
<rect y="36" width="6" height="6" fill="#FF5151"/>
<rect x="18" y="30" width="6" height="6" fill="#FF8933"/>
<rect x="12" y="24" width="6" height="6" fill="#FF8933"/>
<rect x="12" y="36" width="6" height="6" fill="#FF5151"/>
<rect y="18" width="6" height="6" fill="#FF8933"/>
<rect x="24" y="42" width="6" height="6" fill="#FF8933"/>
<rect x="6" y="48" width="6" height="6" fill="#80B9D9"/>
<rect x="6" y="6" width="6" height="6" fill="#FF8933"/>
<rect width="6" height="6" fill="#FF8933"/>
<rect x="24" y="54" width="6" height="6" fill="#545C56"/>
<rect x="12" y="54" width="6" height="6" fill="#686980"/>
<rect x="18" y="60" width="6" height="6" fill="#4E4F60"/>
<rect x="6" y="30" width="6" height="6" fill="#FFD953"/>
<rect x="6" y="18" width="6" height="6" fill="#FFD953"/>
<rect x="18" y="54" width="6" height="6" fill="#6C83FE"/>
<rect x="12" y="48" width="6" height="6" fill="#FF5151"/>
<rect x="18" y="36" width="6" height="6" fill="#FFE55E"/>
<rect x="12" y="30" width="6" height="6" fill="#FFF500"/>
<rect x="6" y="24" width="6" height="6" fill="#FFF500"/>
<rect x="18" y="48" width="6" height="6" fill="#5196FF"/>
<rect x="24" y="36" width="6" height="6" fill="#FF5151"/>
<rect y="30" width="6" height="6" fill="#FFC700"/>
<rect x="6" y="12" width="6" height="6" fill="#FFC700"/>
<rect x="12" y="12" width="6" height="6" fill="#FFC700"/>
<rect x="24" y="48" width="6" height="6" fill="#FF5151"/>
</svg>
