<svg width="178" height="11" viewBox="0 0 178 11" fill="none" xmlns="http://www.w3.org/2000/svg">
<path d="M0.869629 0.522949H2.1582V4.15381H5.66846V0.522949H6.95703V10H5.66846V5.23291H2.1582V10H0.869629V0.522949ZM12.0032 1.65283L10.6511 6.50244H13.3552L12.0032 1.65283ZM11.2288 0.522949H12.7839L15.6848 10H14.3581L13.6599 7.53076H10.3401L9.65453 10H8.32787L11.2288 0.522949ZM21.0102 5.5249C21.3403 5.60954 21.6217 5.77035 21.8545 6.00732C22.0872 6.24007 22.3771 6.70768 22.7241 7.41016L24.0127 10H22.6352L21.5054 7.60693C21.1795 6.92562 20.8854 6.48763 20.623 6.29297C20.3649 6.09408 20.0263 5.99463 19.6074 5.99463H18.3823V10H17.0937V0.522949H19.7344C20.7754 0.522949 21.5731 0.757812 22.1274 1.22754C22.6818 1.69727 22.959 2.37646 22.959 3.26514C22.959 3.89144 22.7876 4.40348 22.4448 4.80127C22.1063 5.19482 21.6281 5.43604 21.0102 5.5249ZM18.3823 1.57666V4.94092H19.7851C20.3987 4.94092 20.8558 4.80339 21.1562 4.52832C21.4567 4.25326 21.6069 3.83219 21.6069 3.26514C21.6069 2.71924 21.4461 2.30241 21.1245 2.01465C20.8071 1.72266 20.3437 1.57666 19.7344 1.57666H18.3823ZM27.0466 8.94629C28.1257 8.94629 28.879 8.6818 29.3064 8.15283C29.7338 7.61963 29.9475 6.65902 29.9475 5.271C29.9475 3.87028 29.7338 2.90544 29.3064 2.37646C28.8832 1.84326 28.1299 1.57666 27.0466 1.57666H26.4372V8.94629H27.0466ZM27.072 0.522949C28.5193 0.522949 29.5857 0.90804 30.2712 1.67822C30.9568 2.4484 31.2995 3.646 31.2995 5.271C31.2995 6.88753 30.9568 8.08089 30.2712 8.85107C29.5857 9.61702 28.5193 10 27.072 10H25.1487V0.522949H27.072ZM32.372 0.522949H33.6225L34.5302 8.21631L35.6093 3.12549H36.9487L38.0405 8.229L38.9482 0.522949H40.1987L38.7832 10H37.5708L36.2822 4.36963L35 10H33.7876L32.372 0.522949ZM44.3752 1.65283L43.0231 6.50244H45.7272L44.3752 1.65283ZM43.6008 0.522949H45.156L48.0568 10H46.7302L46.0319 7.53076H42.7121L42.0266 10H40.6999L43.6008 0.522949ZM53.3823 5.5249C53.7123 5.60954 53.9938 5.77035 54.2265 6.00732C54.4593 6.24007 54.7491 6.70768 55.0961 7.41016L56.3847 10H55.0073L53.8774 7.60693C53.5515 6.92562 53.2574 6.48763 52.9951 6.29297C52.7369 6.09408 52.3984 5.99463 51.9794 5.99463H50.7543V10H49.4658V0.522949H52.1064C53.1474 0.522949 53.9451 0.757812 54.4995 1.22754C55.0538 1.69727 55.331 2.37646 55.331 3.26514C55.331 3.89144 55.1596 4.40348 54.8168 4.80127C54.4783 5.19482 54.0001 5.43604 53.3823 5.5249ZM50.7543 1.57666V4.94092H52.1572C52.7708 4.94092 53.2278 4.80339 53.5283 4.52832C53.8287 4.25326 53.9789 3.83219 53.9789 3.26514C53.9789 2.71924 53.8181 2.30241 53.4965 2.01465C53.1791 1.72266 52.7158 1.57666 52.1064 1.57666H50.7543ZM57.9015 0.522949H63.5256V1.60205H59.1838V4.15381H63.3351V5.23291H59.1838V8.9209H63.6462V10H57.9015V0.522949ZM79.6481 9.66357C79.3223 9.83708 78.9879 9.96615 78.6452 10.0508C78.3024 10.1396 77.9385 10.1841 77.5534 10.1841C76.3389 10.1841 75.3952 9.75456 74.7223 8.89551C74.0537 8.03646 73.7194 6.82829 73.7194 5.271C73.7194 3.72217 74.0558 2.51611 74.7287 1.65283C75.4058 0.785319 76.3473 0.351562 77.5534 0.351562C77.9385 0.351562 78.3024 0.395996 78.6452 0.484863C78.9879 0.569499 79.3223 0.698568 79.6481 0.87207V2.18604C79.335 1.9279 78.9985 1.73112 78.6388 1.5957C78.2791 1.46029 77.9173 1.39258 77.5534 1.39258C76.7197 1.39258 76.0955 1.71419 75.6808 2.35742C75.2661 3.00065 75.0587 3.97184 75.0587 5.271C75.0587 6.56592 75.2661 7.53499 75.6808 8.17822C76.0955 8.82145 76.7197 9.14307 77.5534 9.14307C77.9258 9.14307 78.2897 9.07536 78.6452 8.93994C79.0049 8.80452 79.3392 8.60775 79.6481 8.34961V9.66357ZM85.7543 5.5249C86.0844 5.60954 86.3658 5.77035 86.5985 6.00732C86.8313 6.24007 87.1212 6.70768 87.4682 7.41016L88.7567 10H87.3793L86.2494 7.60693C85.9236 6.92562 85.6295 6.48763 85.3671 6.29297C85.109 6.09408 84.7704 5.99463 84.3515 5.99463H83.1264V10H81.8378V0.522949H84.4784C85.5194 0.522949 86.3171 0.757812 86.8715 1.22754C87.4258 1.69727 87.703 2.37646 87.703 3.26514C87.703 3.89144 87.5316 4.40348 87.1889 4.80127C86.8503 5.19482 86.3721 5.43604 85.7543 5.5249ZM83.1264 1.57666V4.94092H84.5292C85.1428 4.94092 85.5998 4.80339 85.9003 4.52832C86.2007 4.25326 86.351 3.83219 86.351 3.26514C86.351 2.71924 86.1902 2.30241 85.8686 2.01465C85.5512 1.72266 85.0878 1.57666 84.4784 1.57666H83.1264ZM89.2579 0.522949H90.6227L92.9332 4.70605L95.2374 0.522949H96.6149L93.5744 5.74707V10H92.2858V5.74707L89.2579 0.522949ZM99.6488 1.57666V5.1377H101.134C101.727 5.1377 102.188 4.98112 102.518 4.66797C102.852 4.35482 103.019 3.91683 103.019 3.354C103.019 2.79118 102.854 2.35531 102.524 2.04639C102.194 1.73324 101.731 1.57666 101.134 1.57666H99.6488ZM98.3666 0.522949H101.134C102.192 0.522949 102.994 0.76416 103.54 1.24658C104.086 1.72477 104.359 2.42725 104.359 3.354C104.359 4.28923 104.086 4.99593 103.54 5.47412C102.998 5.95231 102.196 6.19141 101.134 6.19141H99.6488V10H98.3666V0.522949ZM105.507 0.522949H112.737V1.60205H109.773V10H108.484V1.60205H105.507V0.522949ZM119.047 5.271C119.047 3.87874 118.903 2.88428 118.615 2.2876C118.332 1.69092 117.864 1.39258 117.212 1.39258C116.565 1.39258 116.097 1.69092 115.809 2.2876C115.526 2.88428 115.384 3.87874 115.384 5.271C115.384 6.65902 115.526 7.65137 115.809 8.24805C116.097 8.84473 116.565 9.14307 117.212 9.14307C117.864 9.14307 118.332 8.84684 118.615 8.25439C118.903 7.65771 119.047 6.66325 119.047 5.271ZM120.386 5.271C120.386 6.92139 120.124 8.15283 119.599 8.96533C119.078 9.77783 118.283 10.1841 117.212 10.1841C116.142 10.1841 115.346 9.77995 114.826 8.97168C114.305 8.16341 114.045 6.92985 114.045 5.271C114.045 3.61637 114.305 2.38281 114.826 1.57031C115.35 0.757812 116.146 0.351562 117.212 0.351562C118.283 0.351562 119.078 0.757812 119.599 1.57031C120.124 2.38281 120.386 3.61637 120.386 5.271ZM129.488 0.522949H130.739L131.646 8.21631L132.725 3.12549H134.065L135.157 8.229L136.064 0.522949H137.315L135.899 10H134.687L133.398 4.36963L132.116 10H130.904L129.488 0.522949ZM141.491 1.65283L140.139 6.50244H142.843L141.491 1.65283ZM140.717 0.522949H142.272L145.173 10H143.846L143.148 7.53076H139.828L139.143 10H137.816L140.717 0.522949ZM147.039 0.522949H148.327V8.9209H152.904V10H147.039V0.522949ZM155.132 0.522949H156.42V8.9209H160.997V10H155.132V0.522949ZM163.111 0.522949H168.735V1.60205H164.393V4.15381H168.544V5.23291H164.393V8.9209H168.855V10H163.111V0.522949ZM170.252 0.522949H177.481V1.60205H174.517V10H173.229V1.60205H170.252V0.522949Z" fill="#252926"/>
<path d="M0.869629 0.522949V-0.477051H-0.130371V0.522949H0.869629ZM2.1582 0.522949H3.1582V-0.477051H2.1582V0.522949ZM2.1582 4.15381H1.1582V5.15381H2.1582V4.15381ZM5.66846 4.15381V5.15381H6.66846V4.15381H5.66846ZM5.66846 0.522949V-0.477051H4.66846V0.522949H5.66846ZM6.95703 0.522949H7.95703V-0.477051H6.95703V0.522949ZM6.95703 10V11H7.95703V10H6.95703ZM5.66846 10H4.66846V11H5.66846V10ZM5.66846 5.23291H6.66846V4.23291H5.66846V5.23291ZM2.1582 5.23291V4.23291H1.1582V5.23291H2.1582ZM2.1582 10V11H3.1582V10H2.1582ZM0.869629 10H-0.130371V11H0.869629V10ZM0.869629 1.52295H2.1582V-0.477051H0.869629V1.52295ZM1.1582 0.522949V4.15381H3.1582V0.522949H1.1582ZM2.1582 5.15381H5.66846V3.15381H2.1582V5.15381ZM6.66846 4.15381V0.522949H4.66846V4.15381H6.66846ZM5.66846 1.52295H6.95703V-0.477051H5.66846V1.52295ZM5.95703 0.522949V10H7.95703V0.522949H5.95703ZM6.95703 9H5.66846V11H6.95703V9ZM6.66846 10V5.23291H4.66846V10H6.66846ZM5.66846 4.23291H2.1582V6.23291H5.66846V4.23291ZM1.1582 5.23291V10H3.1582V5.23291H1.1582ZM2.1582 9H0.869629V11H2.1582V9ZM1.86963 10V0.522949H-0.130371V10H1.86963ZM12.0032 1.65283L12.9664 1.38428L12.0032 -2.07081L11.0399 1.38428L12.0032 1.65283ZM10.6511 6.50244L9.68785 6.23389L9.33418 7.50244H10.6511V6.50244ZM13.3552 6.50244V7.50244H14.6721L14.3185 6.23389L13.3552 6.50244ZM11.2288 0.522949V-0.477051H10.489L10.2725 0.230259L11.2288 0.522949ZM12.7839 0.522949L13.7401 0.230259L13.5236 -0.477051H12.7839V0.522949ZM15.6848 10V11H17.0367L16.641 9.70731L15.6848 10ZM14.3581 10L13.3959 10.2721L13.6017 11H14.3581V10ZM13.6599 7.53076L14.6222 7.25866L14.4163 6.53076H13.6599V7.53076ZM10.3401 7.53076V6.53076H9.57989L9.37652 7.26325L10.3401 7.53076ZM9.65453 10V11H10.4147L10.6181 10.2675L9.65453 10ZM8.32787 10L7.37166 9.70731L6.97598 11H8.32787V10ZM11.0399 1.38428L9.68785 6.23389L11.6144 6.771L12.9664 1.92139L11.0399 1.38428ZM10.6511 7.50244H13.3552V5.50244H10.6511V7.50244ZM14.3185 6.23389L12.9664 1.38428L11.0399 1.92139L12.392 6.771L14.3185 6.23389ZM11.2288 1.52295H12.7839V-0.477051H11.2288V1.52295ZM11.8277 0.815639L14.7286 10.2927L16.641 9.70731L13.7401 0.230259L11.8277 0.815639ZM15.6848 9H14.3581V11H15.6848V9ZM15.3204 9.72789L14.6222 7.25866L12.6976 7.80287L13.3959 10.2721L15.3204 9.72789ZM13.6599 6.53076H10.3401V8.53076H13.6599V6.53076ZM9.37652 7.26325L8.69098 9.73248L10.6181 10.2675L11.3036 7.79828L9.37652 7.26325ZM9.65453 9H8.32787V11H9.65453V9ZM9.28408 10.2927L12.185 0.815639L10.2725 0.230259L7.37166 9.70731L9.28408 10.2927ZM21.0102 5.5249L20.8679 4.53509L20.7619 6.49357L21.0102 5.5249ZM21.8545 6.00732L21.141 6.70806L21.1474 6.71443L21.8545 6.00732ZM22.7241 7.41016L21.8275 7.85305L21.8288 7.85561L22.7241 7.41016ZM24.0127 10V11H25.6272L24.908 9.55454L24.0127 10ZM22.6352 10L21.731 10.427L22.0015 11H22.6352V10ZM21.5054 7.60693L22.4096 7.17998L22.4075 7.17548L21.5054 7.60693ZM20.623 6.29297L20.0127 7.08511L20.0199 7.09065L20.0272 7.09607L20.623 6.29297ZM18.3823 5.99463V4.99463H17.3823V5.99463H18.3823ZM18.3823 10V11H19.3823V10H18.3823ZM17.0937 10H16.0937V11H17.0937V10ZM17.0937 0.522949V-0.477051H16.0937V0.522949H17.0937ZM22.4448 4.80127L21.6873 4.14849L21.6867 4.14914L22.4448 4.80127ZM18.3823 1.57666V0.57666H17.3823V1.57666H18.3823ZM18.3823 4.94092H17.3823V5.94092H18.3823V4.94092ZM21.1245 2.01465L20.4474 2.75065L20.4577 2.75989L21.1245 2.01465ZM20.7619 6.49357C20.9202 6.53416 21.0394 6.60458 21.141 6.70803L22.5679 5.30662C22.204 4.93611 21.7604 4.68491 21.2586 4.55624L20.7619 6.49357ZM21.1474 6.71443C21.2519 6.81897 21.4805 7.15048 21.8275 7.85304L23.6207 6.96727C23.2737 6.26489 22.9225 5.66117 22.5616 5.30022L21.1474 6.71443ZM21.8288 7.85561L23.1174 10.4455L24.908 9.55454L23.6194 6.9647L21.8288 7.85561ZM24.0127 9H22.6352V11H24.0127V9ZM23.5395 9.57305L22.4096 7.17998L20.6011 8.03389L21.731 10.427L23.5395 9.57305ZM22.4075 7.17548C22.0808 6.49232 21.6987 5.84585 21.2189 5.48987L20.0272 7.09607C20.0227 7.09275 20.0392 7.1045 20.0749 7.14505C20.1097 7.18465 20.1551 7.2429 20.2102 7.32493C20.3215 7.49066 20.4531 7.72447 20.6032 8.03839L22.4075 7.17548ZM21.2334 5.50083C20.7558 5.13289 20.1835 4.99463 19.6074 4.99463V6.99463C19.8692 6.99463 19.9739 7.05526 20.0127 7.08511L21.2334 5.50083ZM19.6074 4.99463H18.3823V6.99463H19.6074V4.99463ZM17.3823 5.99463V10H19.3823V5.99463H17.3823ZM18.3823 9H17.0937V11H18.3823V9ZM18.0937 10V0.522949H16.0937V10H18.0937ZM17.0937 1.52295H19.7344V-0.477051H17.0937V1.52295ZM19.7344 1.52295C20.6393 1.52295 21.1715 1.72826 21.481 1.99048L22.7739 0.464595C21.9746 -0.212631 20.9115 -0.477051 19.7344 -0.477051V1.52295ZM21.481 1.99048C21.7616 2.2283 21.959 2.59871 21.959 3.26514H23.959C23.959 2.15422 23.6019 1.16623 22.7739 0.464595L21.481 1.99048ZM21.959 3.26514C21.959 3.70027 21.8447 3.96583 21.6873 4.14849L23.2024 5.45405C23.7305 4.84113 23.959 4.0826 23.959 3.26514H21.959ZM21.6867 4.14914C21.5363 4.32392 21.2972 4.47334 20.8679 4.53509L21.1526 6.51472C21.959 6.39873 22.6762 6.06573 23.2029 5.4534L21.6867 4.14914ZM17.3823 1.57666V4.94092H19.3823V1.57666H17.3823ZM18.3823 5.94092H19.7851V3.94092H18.3823V5.94092ZM19.7851 5.94092C20.5255 5.94092 21.2724 5.77774 21.8315 5.26591L20.481 3.79074C20.4391 3.82903 20.272 3.94092 19.7851 3.94092V5.94092ZM21.8315 5.26591C22.4099 4.7364 22.6069 3.99928 22.6069 3.26514H20.6069C20.6069 3.6651 20.5035 3.77011 20.481 3.79074L21.8315 5.26591ZM22.6069 3.26514C22.6069 2.51548 22.3785 1.79477 21.7913 1.26941L20.4577 2.75989C20.5138 2.81005 20.6069 2.923 20.6069 3.26514H22.6069ZM21.8015 1.27872C21.2354 0.757887 20.4911 0.57666 19.7344 0.57666V2.57666C20.1964 2.57666 20.3788 2.68743 20.4474 2.75058L21.8015 1.27872ZM19.7344 0.57666H18.3823V2.57666H19.7344V0.57666ZM29.3064 8.15283L30.0842 8.78132L30.0866 8.77828L29.3064 8.15283ZM29.3064 2.37646L28.523 2.99815L28.5285 3.00495L29.3064 2.37646ZM26.4372 1.57666V0.57666H25.4372V1.57666H26.4372ZM26.4372 8.94629H25.4372V9.94629H26.4372V8.94629ZM30.2712 8.85107L31.0163 9.51799L31.0182 9.51595L30.2712 8.85107ZM25.1487 10H24.1487V11H25.1487V10ZM25.1487 0.522949V-0.477051H24.1487V0.522949H25.1487ZM27.0466 9.94629C28.2506 9.94629 29.3782 9.65505 30.0842 8.78131L28.5285 7.52435C28.3797 7.70856 28.0008 7.94629 27.0466 7.94629V9.94629ZM30.0866 8.77828C30.7434 7.95897 30.9475 6.69029 30.9475 5.271H28.9475C28.9475 6.62775 28.7242 7.28029 28.5261 7.52738L30.0866 8.77828ZM30.9475 5.271C30.9475 3.84305 30.7447 2.56549 30.0842 1.74798L28.5285 3.00495C28.7228 3.24538 28.9475 3.89751 28.9475 5.271H30.9475ZM30.0897 1.75481C29.3874 0.869956 28.2544 0.57666 27.0466 0.57666V2.57666C28.0055 2.57666 28.379 2.81657 28.5231 2.99812L30.0897 1.75481ZM27.0466 0.57666H26.4372V2.57666H27.0466V0.57666ZM25.4372 1.57666V8.94629H27.4372V1.57666H25.4372ZM26.4372 9.94629H27.0466V7.94629H26.4372V9.94629ZM27.072 1.52295C28.3529 1.52295 29.0953 1.86123 29.5243 2.3431L31.0182 1.01335C30.076 -0.0451455 28.6857 -0.477051 27.072 -0.477051V1.52295ZM29.5243 2.3431C29.9754 2.84989 30.2995 3.75668 30.2995 5.271H32.2995C32.2995 3.53532 31.9382 2.04692 31.0182 1.01335L29.5243 2.3431ZM30.2995 5.271C30.2995 6.77522 29.976 7.67863 29.5243 8.1862L31.0182 9.51595C31.9375 8.48315 32.2995 6.99984 32.2995 5.271H30.2995ZM29.5261 8.18416C29.0976 8.66293 28.3544 9 27.072 9V11C28.6841 11 30.0738 10.5711 31.0163 9.51799L29.5261 8.18416ZM27.072 9H25.1487V11H27.072V9ZM26.1487 10V0.522949H24.1487V10H26.1487ZM25.1487 1.52295H27.072V-0.477051H25.1487V1.52295ZM32.372 0.522949V-0.477051H31.2116L31.383 0.670674L32.372 0.522949ZM33.6225 0.522949L34.6156 0.405775L34.5115 -0.477051H33.6225V0.522949ZM34.5302 8.21631L33.5371 8.33348L35.5085 8.42367L34.5302 8.21631ZM35.6093 3.12549V2.12549H34.7991L34.6311 2.91813L35.6093 3.12549ZM36.9487 3.12549L37.9266 2.91629L37.7574 2.12549H36.9487V3.12549ZM38.0405 8.229L37.0626 8.4382L39.0336 8.34599L38.0405 8.229ZM38.9482 0.522949V-0.477051H38.0591L37.9551 0.405966L38.9482 0.522949ZM40.1987 0.522949L41.1877 0.670674L41.3591 -0.477051H40.1987V0.522949ZM38.7832 10V11H39.6449L39.7722 10.1477L38.7832 10ZM37.5708 10L36.596 10.2231L36.7738 11H37.5708V10ZM36.2822 4.36963L37.257 4.14654L35.3072 4.14758L36.2822 4.36963ZM35 10V11H35.7978L35.975 10.222L35 10ZM33.7876 10L32.7985 10.1477L32.9258 11H33.7876V10ZM32.372 1.52295H33.6225V-0.477051H32.372V1.52295ZM32.6294 0.640123L33.5371 8.33348L35.5233 8.09913L34.6156 0.405775L32.6294 0.640123ZM35.5085 8.42367L36.5876 3.33285L34.6311 2.91813L33.552 8.00895L35.5085 8.42367ZM35.6093 4.12549H36.9487V2.12549H35.6093V4.12549ZM35.9708 3.33469L37.0626 8.4382L39.0184 8.01981L37.9266 2.91629L35.9708 3.33469ZM39.0336 8.34599L39.9413 0.639933L37.9551 0.405966L37.0474 8.11202L39.0336 8.34599ZM38.9482 1.52295H40.1987V-0.477051H38.9482V1.52295ZM39.2097 0.375224L37.7941 9.85227L39.7722 10.1477L41.1877 0.670674L39.2097 0.375224ZM38.7832 9H37.5708V11H38.7832V9ZM38.5456 9.77691L37.257 4.14654L35.3074 4.59272L36.596 10.2231L38.5456 9.77691ZM35.3072 4.14758L34.0249 9.77795L35.975 10.222L37.2572 4.59168L35.3072 4.14758ZM35 9H33.7876V11H35V9ZM34.7766 9.85227L33.3611 0.375224L31.383 0.670674L32.7985 10.1477L34.7766 9.85227ZM44.3752 1.65283L45.3385 1.38428L44.3752 -2.07081L43.4119 1.38428L44.3752 1.65283ZM43.0231 6.50244L42.0599 6.23389L41.7062 7.50244H43.0231V6.50244ZM45.7272 6.50244V7.50244H47.0442L46.6905 6.23389L45.7272 6.50244ZM43.6008 0.522949V-0.477051H42.8611L42.6446 0.230259L43.6008 0.522949ZM45.156 0.522949L46.1122 0.230259L45.8957 -0.477051H45.156V0.522949ZM48.0568 10V11H49.4087L49.013 9.70731L48.0568 10ZM46.7302 10L45.7679 10.2721L45.9737 11H46.7302V10ZM46.0319 7.53076L46.9942 7.25866L46.7884 6.53076H46.0319V7.53076ZM42.7121 7.53076V6.53076H41.9519L41.7486 7.26325L42.7121 7.53076ZM42.0266 10V11H42.7868L42.9901 10.2675L42.0266 10ZM40.6999 10L39.7437 9.70731L39.348 11H40.6999V10ZM43.4119 1.38428L42.0599 6.23389L43.9864 6.771L45.3385 1.92139L43.4119 1.38428ZM43.0231 7.50244H45.7272V5.50244H43.0231V7.50244ZM46.6905 6.23389L45.3385 1.38428L43.4119 1.92139L44.764 6.771L46.6905 6.23389ZM43.6008 1.52295H45.156V-0.477051H43.6008V1.52295ZM44.1997 0.815639L47.1006 10.2927L49.013 9.70731L46.1122 0.230259L44.1997 0.815639ZM48.0568 9H46.7302V11H48.0568V9ZM47.6924 9.72789L46.9942 7.25866L45.0697 7.80287L45.7679 10.2721L47.6924 9.72789ZM46.0319 6.53076H42.7121V8.53076H46.0319V6.53076ZM41.7486 7.26325L41.063 9.73248L42.9901 10.2675L43.6757 7.79828L41.7486 7.26325ZM42.0266 9H40.6999V11H42.0266V9ZM41.6561 10.2927L44.557 0.815639L42.6446 0.230259L39.7437 9.70731L41.6561 10.2927ZM53.3823 5.5249L53.2399 4.53509L53.1339 6.49357L53.3823 5.5249ZM54.2265 6.00732L53.513 6.70806L53.5194 6.71443L54.2265 6.00732ZM55.0961 7.41016L54.1996 7.85305L54.2008 7.85561L55.0961 7.41016ZM56.3847 10V11H57.9992L57.28 9.55454L56.3847 10ZM55.0073 10L54.103 10.427L54.3736 11H55.0073V10ZM53.8774 7.60693L54.7817 7.17998L54.7795 7.17548L53.8774 7.60693ZM52.9951 6.29297L52.3847 7.08511L52.3919 7.09065L52.3992 7.09607L52.9951 6.29297ZM50.7543 5.99463V4.99463H49.7543V5.99463H50.7543ZM50.7543 10V11H51.7543V10H50.7543ZM49.4658 10H48.4658V11H49.4658V10ZM49.4658 0.522949V-0.477051H48.4658V0.522949H49.4658ZM54.8168 4.80127L54.0593 4.14849L54.0587 4.14914L54.8168 4.80127ZM50.7543 1.57666V0.57666H49.7543V1.57666H50.7543ZM50.7543 4.94092H49.7543V5.94092H50.7543V4.94092ZM53.4965 2.01465L52.8194 2.75065L52.8297 2.75989L53.4965 2.01465ZM53.1339 6.49357C53.2922 6.53416 53.4114 6.60458 53.5131 6.70803L54.94 5.30662C54.5761 4.93611 54.1325 4.68491 53.6306 4.55624L53.1339 6.49357ZM53.5194 6.71443C53.6239 6.81897 53.8525 7.15048 54.1996 7.85304L55.9927 6.96727C55.6458 6.26489 55.2946 5.66117 54.9336 5.30022L53.5194 6.71443ZM54.2008 7.85561L55.4894 10.4455L57.28 9.55454L55.9914 6.9647L54.2008 7.85561ZM56.3847 9H55.0073V11H56.3847V9ZM55.9115 9.57305L54.7817 7.17998L52.9731 8.03389L54.103 10.427L55.9115 9.57305ZM54.7795 7.17548C54.4528 6.49232 54.0707 5.84585 53.5909 5.48987L52.3992 7.09607C52.3947 7.09275 52.4113 7.1045 52.4469 7.14505C52.4818 7.18465 52.5271 7.2429 52.5822 7.32493C52.6935 7.49066 52.8251 7.72447 52.9753 8.03839L54.7795 7.17548ZM53.6054 5.50083C53.1279 5.13289 52.5556 4.99463 51.9794 4.99463V6.99463C52.2412 6.99463 52.346 7.05526 52.3847 7.08511L53.6054 5.50083ZM51.9794 4.99463H50.7543V6.99463H51.9794V4.99463ZM49.7543 5.99463V10H51.7543V5.99463H49.7543ZM50.7543 9H49.4658V11H50.7543V9ZM50.4658 10V0.522949H48.4658V10H50.4658ZM49.4658 1.52295H52.1064V-0.477051H49.4658V1.52295ZM52.1064 1.52295C53.0113 1.52295 53.5435 1.72826 53.853 1.99048L55.1459 0.464595C54.3467 -0.212631 53.2835 -0.477051 52.1064 -0.477051V1.52295ZM53.853 1.99048C54.1337 2.2283 54.331 2.59871 54.331 3.26514H56.331C56.331 2.15422 55.974 1.16623 55.1459 0.464595L53.853 1.99048ZM54.331 3.26514C54.331 3.70027 54.2167 3.96583 54.0593 4.14849L55.5744 5.45405C56.1025 4.84113 56.331 4.0826 56.331 3.26514H54.331ZM54.0587 4.14914C53.9084 4.32392 53.6692 4.47334 53.2399 4.53509L53.5246 6.51472C54.331 6.39873 55.0482 6.06573 55.5749 5.4534L54.0587 4.14914ZM49.7543 1.57666V4.94092H51.7543V1.57666H49.7543ZM50.7543 5.94092H52.1572V3.94092H50.7543V5.94092ZM52.1572 5.94092C52.8975 5.94092 53.6444 5.77774 54.2035 5.26591L52.853 3.79074C52.8112 3.82903 52.6441 3.94092 52.1572 3.94092V5.94092ZM54.2035 5.26591C54.7819 4.7364 54.9789 3.99928 54.9789 3.26514H52.9789C52.9789 3.6651 52.8755 3.77011 52.853 3.79074L54.2035 5.26591ZM54.9789 3.26514C54.9789 2.51548 54.7505 1.79477 54.1633 1.26941L52.8297 2.75989C52.8858 2.81005 52.9789 2.923 52.9789 3.26514H54.9789ZM54.1736 1.27872C53.6075 0.757887 52.8631 0.57666 52.1064 0.57666V2.57666C52.5684 2.57666 52.7508 2.68743 52.8195 2.75058L54.1736 1.27872ZM52.1064 0.57666H50.7543V2.57666H52.1064V0.57666ZM57.9015 0.522949V-0.477051H56.9015V0.522949H57.9015ZM63.5256 0.522949H64.5256V-0.477051H63.5256V0.522949ZM63.5256 1.60205V2.60205H64.5256V1.60205H63.5256ZM59.1838 1.60205V0.602051H58.1838V1.60205H59.1838ZM59.1838 4.15381H58.1838V5.15381H59.1838V4.15381ZM63.3351 4.15381H64.3351V3.15381H63.3351V4.15381ZM63.3351 5.23291V6.23291H64.3351V5.23291H63.3351ZM59.1838 5.23291V4.23291H58.1838V5.23291H59.1838ZM59.1838 8.9209H58.1838V9.9209H59.1838V8.9209ZM63.6462 8.9209H64.6462V7.9209H63.6462V8.9209ZM63.6462 10V11H64.6462V10H63.6462ZM57.9015 10H56.9015V11H57.9015V10ZM57.9015 1.52295H63.5256V-0.477051H57.9015V1.52295ZM62.5256 0.522949V1.60205H64.5256V0.522949H62.5256ZM63.5256 0.602051H59.1838V2.60205H63.5256V0.602051ZM58.1838 1.60205V4.15381H60.1838V1.60205H58.1838ZM59.1838 5.15381H63.3351V3.15381H59.1838V5.15381ZM62.3351 4.15381V5.23291H64.3351V4.15381H62.3351ZM63.3351 4.23291H59.1838V6.23291H63.3351V4.23291ZM58.1838 5.23291V8.9209H60.1838V5.23291H58.1838ZM59.1838 9.9209H63.6462V7.9209H59.1838V9.9209ZM62.6462 8.9209V10H64.6462V8.9209H62.6462ZM63.6462 9H57.9015V11H63.6462V9ZM58.9015 10V0.522949H56.9015V10H58.9015ZM79.6481 9.66357L80.1181 10.5462L80.6481 10.264V9.66357H79.6481ZM78.6452 10.0508L78.4054 9.07987L78.3942 9.08278L78.6452 10.0508ZM74.7223 8.89551L73.9332 9.50972L73.9351 9.51213L74.7223 8.89551ZM74.7287 1.65283L73.9404 1.03756L73.9399 1.03809L74.7287 1.65283ZM78.6452 0.484863L78.3942 1.45293L78.4055 1.45571L78.6452 0.484863ZM79.6481 0.87207H80.6481V0.271612L80.1181 -0.0105996L79.6481 0.87207ZM79.6481 2.18604L79.012 2.95766L80.6481 4.30632V2.18604H79.6481ZM75.6808 2.35742L74.8404 1.81555L75.6808 2.35742ZM75.6808 8.17822L74.8404 8.7201L75.6808 8.17822ZM78.6452 8.93994L78.2928 8.00406L78.2892 8.00545L78.6452 8.93994ZM79.6481 8.34961H80.6481V6.21082L79.0069 7.58225L79.6481 8.34961ZM79.1781 8.7809C78.9218 8.9174 78.6646 9.01596 78.4055 9.07994L78.8849 11.0216C79.3113 10.9163 79.7227 10.7568 80.1181 10.5462L79.1781 8.7809ZM78.3942 9.08278C78.1402 9.14864 77.8611 9.18408 77.5534 9.18408V11.1841C78.0158 11.1841 78.4646 11.1307 78.8961 11.0188L78.3942 9.08278ZM77.5534 9.18408C76.6066 9.18408 75.9697 8.86635 75.5096 8.27889L73.9351 9.51213C74.8206 10.6428 76.0711 11.1841 77.5534 11.1841V9.18408ZM75.5115 8.2813C75.0274 7.65938 74.7194 6.69894 74.7194 5.271H72.7194C72.7194 6.95764 73.08 8.41354 73.9332 9.50972L75.5115 8.2813ZM74.7194 5.271C74.7194 3.85462 75.0282 2.89525 75.5174 2.26758L73.9399 1.03809C73.0835 2.13698 72.7194 3.58971 72.7194 5.271H74.7194ZM75.517 2.2681C75.9846 1.66892 76.6214 1.35156 77.5534 1.35156V-0.648438C76.0732 -0.648438 74.8269 -0.098278 73.9404 1.03756L75.517 2.2681ZM77.5534 1.35156C77.8611 1.35156 78.1402 1.38701 78.3942 1.45286L78.8961 -0.483134C78.4646 -0.595016 78.0158 -0.648438 77.5534 -0.648438V1.35156ZM78.4055 1.45571C78.6646 1.51968 78.9218 1.61825 79.1781 1.75474L80.1181 -0.0105996C79.7227 -0.221113 79.3113 -0.380684 78.8849 -0.48598L78.4055 1.45571ZM78.6481 0.87207V2.18604H80.6481V0.87207H78.6481ZM80.2842 1.41441C79.8909 1.09022 79.4595 0.836133 78.9912 0.659827L78.2865 2.53158C78.5376 2.62611 78.779 2.76558 79.012 2.95766L80.2842 1.41441ZM78.9912 0.659827C78.5252 0.484413 78.0443 0.392578 77.5534 0.392578V2.39258C77.7903 2.39258 78.033 2.43616 78.2865 2.53158L78.9912 0.659827ZM77.5534 0.392578C76.416 0.392578 75.4579 0.857651 74.8404 1.81555L76.5213 2.8993C76.7331 2.57073 77.0234 2.39258 77.5534 2.39258V0.392578ZM74.8404 1.81555C74.2717 2.69754 74.0587 3.89877 74.0587 5.271H76.0587C76.0587 4.04491 76.2605 3.30376 76.5213 2.8993L74.8404 1.81555ZM74.0587 5.271C74.0587 6.63977 74.2719 7.83849 74.8404 8.7201L76.5213 7.63635C76.2603 7.2315 76.0587 6.49207 76.0587 5.271H74.0587ZM74.8404 8.7201C75.4579 9.67799 76.416 10.1431 77.5534 10.1431V8.14307C77.0234 8.14307 76.7331 7.96491 76.5213 7.63635L74.8404 8.7201ZM77.5534 10.1431C78.0501 10.1431 78.5345 10.0522 79.0012 9.87443L78.2892 8.00545C78.0449 8.09851 77.8015 8.14307 77.5534 8.14307V10.1431ZM78.9975 9.87582C79.4672 9.69899 79.8984 9.44365 80.2893 9.11697L79.0069 7.58225C78.78 7.77184 78.5426 7.91006 78.2928 8.00407L78.9975 9.87582ZM78.6481 8.34961V9.66357H80.6481V8.34961H78.6481ZM85.7543 5.5249L85.6119 4.53509L85.5059 6.49357L85.7543 5.5249ZM86.5985 6.00732L85.8851 6.70806L85.8914 6.71443L86.5985 6.00732ZM87.4682 7.41016L86.5716 7.85305L86.5729 7.85561L87.4682 7.41016ZM88.7567 10V11H90.3712L89.652 9.55454L88.7567 10ZM87.3793 10L86.475 10.427L86.7456 11H87.3793V10ZM86.2494 7.60693L87.1537 7.17998L87.1516 7.17548L86.2494 7.60693ZM85.3671 6.29297L84.7568 7.08511L84.7639 7.09065L84.7712 7.09607L85.3671 6.29297ZM83.1264 5.99463V4.99463H82.1264V5.99463H83.1264ZM83.1264 10V11H84.1264V10H83.1264ZM81.8378 10H80.8378V11H81.8378V10ZM81.8378 0.522949V-0.477051H80.8378V0.522949H81.8378ZM87.1889 4.80127L86.4313 4.14849L86.4308 4.14914L87.1889 4.80127ZM83.1264 1.57666V0.57666H82.1264V1.57666H83.1264ZM83.1264 4.94092H82.1264V5.94092H83.1264V4.94092ZM85.8686 2.01465L85.1914 2.75065L85.2018 2.75989L85.8686 2.01465ZM85.5059 6.49357C85.6643 6.53416 85.7835 6.60458 85.8851 6.70803L87.312 5.30662C86.9481 4.93611 86.5045 4.68491 86.0027 4.55624L85.5059 6.49357ZM85.8914 6.71443C85.996 6.81897 86.2245 7.15048 86.5716 7.85304L88.3647 6.96727C88.0178 6.26489 87.6666 5.66117 87.3056 5.30022L85.8914 6.71443ZM86.5729 7.85561L87.8614 10.4455L89.652 9.55454L88.3635 6.9647L86.5729 7.85561ZM88.7567 9H87.3793V11H88.7567V9ZM88.2836 9.57305L87.1537 7.17998L85.3451 8.03389L86.475 10.427L88.2836 9.57305ZM87.1516 7.17548C86.8248 6.49232 86.4427 5.84585 85.9629 5.48987L84.7712 7.09607C84.7668 7.09275 84.7833 7.1045 84.819 7.14505C84.8538 7.18465 84.8992 7.2429 84.9543 7.32493C85.0655 7.49066 85.1971 7.72447 85.3473 8.03839L87.1516 7.17548ZM85.9774 5.50083C85.4999 5.13289 84.9276 4.99463 84.3515 4.99463V6.99463C84.6132 6.99463 84.718 7.05526 84.7568 7.08511L85.9774 5.50083ZM84.3515 4.99463H83.1264V6.99463H84.3515V4.99463ZM82.1264 5.99463V10H84.1264V5.99463H82.1264ZM83.1264 9H81.8378V11H83.1264V9ZM82.8378 10V0.522949H80.8378V10H82.8378ZM81.8378 1.52295H84.4784V-0.477051H81.8378V1.52295ZM84.4784 1.52295C85.3833 1.52295 85.9155 1.72826 86.225 1.99048L87.5179 0.464595C86.7187 -0.212631 85.6555 -0.477051 84.4784 -0.477051V1.52295ZM86.225 1.99048C86.5057 2.2283 86.703 2.59871 86.703 3.26514H88.703C88.703 2.15422 88.346 1.16623 87.5179 0.464595L86.225 1.99048ZM86.703 3.26514C86.703 3.70027 86.5887 3.96583 86.4313 4.14849L87.9464 5.45405C88.4746 4.84113 88.703 4.0826 88.703 3.26514H86.703ZM86.4308 4.14914C86.2804 4.32392 86.0412 4.47334 85.6119 4.53509L85.8967 6.51472C86.703 6.39873 87.4202 6.06573 87.947 5.4534L86.4308 4.14914ZM82.1264 1.57666V4.94092H84.1264V1.57666H82.1264ZM83.1264 5.94092H84.5292V3.94092H83.1264V5.94092ZM84.5292 5.94092C85.2695 5.94092 86.0165 5.77774 86.5755 5.26591L85.225 3.79074C85.1832 3.82903 85.0161 3.94092 84.5292 3.94092V5.94092ZM86.5755 5.26591C87.1539 4.7364 87.351 3.99928 87.351 3.26514H85.351C85.351 3.6651 85.2476 3.77011 85.225 3.79074L86.5755 5.26591ZM87.351 3.26514C87.351 2.51548 87.1225 1.79477 86.5353 1.26941L85.2018 2.75989C85.2578 2.81005 85.351 2.923 85.351 3.26514H87.351ZM86.5456 1.27872C85.9795 0.757887 85.2351 0.57666 84.4784 0.57666V2.57666C84.9404 2.57666 85.1228 2.68743 85.1915 2.75058L86.5456 1.27872ZM84.4784 0.57666H83.1264V2.57666H84.4784V0.57666ZM89.2579 0.522949V-0.477051H87.5225L88.3928 1.0244L89.2579 0.522949ZM90.6227 0.522949L91.498 0.0394506L91.2128 -0.477051H90.6227V0.522949ZM92.9332 4.70605L92.0579 5.18955L92.9344 6.77649L93.8092 5.18853L92.9332 4.70605ZM95.2374 0.522949V-0.477051H94.6466L94.3615 0.0404692L95.2374 0.522949ZM96.6149 0.522949L97.4792 1.02597L98.3539 -0.477051H96.6149V0.522949ZM93.5744 5.74707L92.7101 5.24405L92.5744 5.47725V5.74707H93.5744ZM93.5744 10V11H94.5744V10H93.5744ZM92.2858 10H91.2858V11H92.2858V10ZM92.2858 5.74707H93.2858V5.47822L93.151 5.24562L92.2858 5.74707ZM89.2579 1.52295H90.6227V-0.477051H89.2579V1.52295ZM89.7474 1.00645L92.0579 5.18955L93.8086 4.22256L91.498 0.0394506L89.7474 1.00645ZM93.8092 5.18853L96.1133 1.00543L94.3615 0.0404692L92.0573 4.22357L93.8092 5.18853ZM95.2374 1.52295H96.6149V-0.477051H95.2374V1.52295ZM95.7506 0.019927L92.7101 5.24405L94.4386 6.25009L97.4792 1.02597L95.7506 0.019927ZM92.5744 5.74707V10H94.5744V5.74707H92.5744ZM93.5744 9H92.2858V11H93.5744V9ZM93.2858 10V5.74707H91.2858V10H93.2858ZM93.151 5.24562L90.1231 0.0214987L88.3928 1.0244L91.4206 6.24852L93.151 5.24562ZM99.6488 1.57666V0.57666H98.6488V1.57666H99.6488ZM99.6488 5.1377H98.6488V6.1377H99.6488V5.1377ZM102.518 4.66797L101.834 3.93813L101.83 3.9425L102.518 4.66797ZM102.524 2.04639L101.836 2.77187L101.841 2.77651L102.524 2.04639ZM98.3666 0.522949V-0.477051H97.3666V0.522949H98.3666ZM103.54 1.24658L102.878 1.99592L102.881 1.9988L103.54 1.24658ZM103.54 5.47412L102.881 4.7219L102.878 4.72445L103.54 5.47412ZM99.6488 6.19141V5.19141H98.6488V6.19141H99.6488ZM99.6488 10V11H100.649V10H99.6488ZM98.3666 10H97.3666V11H98.3666V10ZM98.6488 1.57666V5.1377H100.649V1.57666H98.6488ZM99.6488 6.1377H101.134V4.1377H99.6488V6.1377ZM101.134 6.1377C101.903 6.1377 102.639 5.93112 103.206 5.39343L101.83 3.9425C101.736 4.03112 101.55 4.1377 101.134 4.1377V6.1377ZM103.202 5.39779C103.782 4.8537 104.019 4.1255 104.019 3.354H102.019C102.019 3.70816 101.922 3.85594 101.834 3.93814L103.202 5.39779ZM104.019 3.354C104.019 2.58692 103.787 1.85865 103.208 1.31627L101.841 2.77651C101.922 2.85196 102.019 2.99543 102.019 3.354H104.019ZM103.213 1.32092C102.645 0.78205 101.905 0.57666 101.134 0.57666V2.57666C101.557 2.57666 101.744 2.68442 101.836 2.77185L103.213 1.32092ZM101.134 0.57666H99.6488V2.57666H101.134V0.57666ZM98.3666 1.52295H101.134V-0.477051H98.3666V1.52295ZM101.134 1.52295C102.057 1.52295 102.582 1.7347 102.878 1.99591L104.202 0.497253C103.406 -0.206377 102.328 -0.477051 101.134 -0.477051V1.52295ZM102.881 1.9988C103.153 2.2372 103.359 2.62988 103.359 3.354H105.359C105.359 2.22461 105.018 1.21234 104.199 0.494367L102.881 1.9988ZM103.359 3.354C103.359 4.08992 103.151 4.48521 102.881 4.72191L104.199 6.22634C105.02 5.50665 105.359 4.48853 105.359 3.354H103.359ZM102.878 4.72445C102.589 4.98003 102.065 5.19141 101.134 5.19141V7.19141C102.328 7.19141 103.408 6.92459 104.202 6.22379L102.878 4.72445ZM101.134 5.19141H99.6488V7.19141H101.134V5.19141ZM98.6488 6.19141V10H100.649V6.19141H98.6488ZM99.6488 9H98.3666V11H99.6488V9ZM99.3666 10V0.522949H97.3666V10H99.3666ZM105.507 0.522949V-0.477051H104.507V0.522949H105.507ZM112.737 0.522949H113.737V-0.477051H112.737V0.522949ZM112.737 1.60205V2.60205H113.737V1.60205H112.737ZM109.773 1.60205V0.602051H108.773V1.60205H109.773ZM109.773 10V11H110.773V10H109.773ZM108.484 10H107.484V11H108.484V10ZM108.484 1.60205H109.484V0.602051H108.484V1.60205ZM105.507 1.60205H104.507V2.60205H105.507V1.60205ZM105.507 1.52295H112.737V-0.477051H105.507V1.52295ZM111.737 0.522949V1.60205H113.737V0.522949H111.737ZM112.737 0.602051H109.773V2.60205H112.737V0.602051ZM108.773 1.60205V10H110.773V1.60205H108.773ZM109.773 9H108.484V11H109.773V9ZM109.484 10V1.60205H107.484V10H109.484ZM108.484 0.602051H105.507V2.60205H108.484V0.602051ZM106.507 1.60205V0.522949H104.507V1.60205H106.507ZM118.615 2.2876L117.712 2.71679L117.714 2.72199L118.615 2.2876ZM115.809 2.2876L114.909 1.8532L114.906 1.85841L115.809 2.2876ZM115.809 8.24805L114.906 8.67724L114.909 8.68244L115.809 8.24805ZM118.615 8.25439L117.714 7.82L117.713 7.82271L118.615 8.25439ZM119.599 8.96533L118.759 8.4228L118.757 8.42591L119.599 8.96533ZM114.826 8.97168L115.666 8.43025L114.826 8.97168ZM114.826 1.57031L113.986 1.02778L113.984 1.03089L114.826 1.57031ZM119.599 1.57031L118.757 2.10974L118.759 2.11284L119.599 1.57031ZM120.047 5.271C120.047 3.8586 119.908 2.66737 119.516 1.85321L117.714 2.72199C117.897 3.10118 118.047 3.89888 118.047 5.271H120.047ZM119.518 1.85841C119.312 1.4233 119.01 1.04126 118.59 0.7733C118.169 0.5048 117.695 0.392578 117.212 0.392578V2.39258C117.381 2.39258 117.467 2.42953 117.514 2.45937C117.561 2.48974 117.635 2.55522 117.712 2.71679L119.518 1.85841ZM117.212 0.392578C116.73 0.392578 116.258 0.50545 115.838 0.7733C115.42 1.04027 115.117 1.42038 114.909 1.85321L116.71 2.72199C116.789 2.55813 116.865 2.49074 116.914 2.45937C116.962 2.42888 117.047 2.39258 117.212 2.39258V0.392578ZM114.906 1.85841C114.52 2.6705 114.384 3.85925 114.384 5.271H116.384C116.384 3.89824 116.531 3.09806 116.713 2.71679L114.906 1.85841ZM114.384 5.271C114.384 6.67906 114.52 7.86538 114.906 8.67723L116.713 7.81886C116.531 7.43735 116.384 6.63897 116.384 5.271H114.384ZM114.909 8.68244C115.117 9.11526 115.42 9.49538 115.838 9.76234C116.258 10.0302 116.73 10.1431 117.212 10.1431V8.14307C117.047 8.14307 116.962 8.10677 116.914 8.07628C116.865 8.0449 116.789 7.97751 116.71 7.81365L114.909 8.68244ZM117.212 10.1431C117.693 10.1431 118.166 10.032 118.587 9.76566C119.007 9.49962 119.31 9.11973 119.517 8.68608L117.713 7.82271C117.637 7.98151 117.564 8.04596 117.517 8.07614C117.469 8.10602 117.383 8.14307 117.212 8.14307V10.1431ZM119.516 8.68879C119.908 7.87462 120.047 6.68339 120.047 5.271H118.047C118.047 6.64311 117.897 7.44081 117.714 7.82L119.516 8.68879ZM119.386 5.271C119.386 6.84947 119.129 7.84991 118.759 8.42281L120.439 9.50786C121.119 8.45576 121.386 6.9933 121.386 5.271H119.386ZM118.757 8.42591C118.443 8.91603 117.986 9.18408 117.212 9.18408V11.1841C118.579 11.1841 119.714 10.6396 120.441 9.50476L118.757 8.42591ZM117.212 9.18408C116.436 9.18408 115.979 8.91625 115.666 8.43025L113.985 9.5131C114.713 10.6436 115.847 11.1841 117.212 11.1841V9.18408ZM115.666 8.43025C115.301 7.86252 115.045 6.86073 115.045 5.271H113.045C113.045 6.99897 113.309 8.46431 113.985 9.5131L115.666 8.43025ZM115.045 5.271C115.045 3.68675 115.3 2.68312 115.668 2.10974L113.984 1.03089C113.31 2.0825 113.045 3.546 113.045 5.271H115.045ZM115.666 2.11284C115.985 1.61858 116.444 1.35156 117.212 1.35156V-0.648438C115.848 -0.648438 114.716 -0.10296 113.986 1.02779L115.666 2.11284ZM117.212 1.35156C117.986 1.35156 118.443 1.61962 118.757 2.10974L120.441 1.03089C119.714 -0.103992 118.579 -0.648438 117.212 -0.648438V1.35156ZM118.759 2.11284C119.129 2.68544 119.386 3.68768 119.386 5.271H121.386C121.386 3.54507 121.119 2.08019 120.439 1.02779L118.759 2.11284ZM129.488 0.522949V-0.477051H128.328L128.499 0.670674L129.488 0.522949ZM130.739 0.522949L131.732 0.405775L131.628 -0.477051H130.739V0.522949ZM131.646 8.21631L130.653 8.33348L132.625 8.42367L131.646 8.21631ZM132.725 3.12549V2.12549H131.915L131.747 2.91813L132.725 3.12549ZM134.065 3.12549L135.043 2.91629L134.873 2.12549H134.065V3.12549ZM135.157 8.229L134.179 8.4382L136.15 8.34599L135.157 8.229ZM136.064 0.522949V-0.477051H135.175L135.071 0.405966L136.064 0.522949ZM137.315 0.522949L138.304 0.670674L138.475 -0.477051H137.315V0.522949ZM135.899 10V11H136.761L136.888 10.1477L135.899 10ZM134.687 10L133.712 10.2231L133.89 11H134.687V10ZM133.398 4.36963L134.373 4.14654L132.423 4.14758L133.398 4.36963ZM132.116 10V11H132.914L133.091 10.222L132.116 10ZM130.904 10L129.915 10.1477L130.042 11H130.904V10ZM129.488 1.52295H130.739V-0.477051H129.488V1.52295ZM129.745 0.640123L130.653 8.33348L132.639 8.09913L131.732 0.405775L129.745 0.640123ZM132.625 8.42367L133.704 3.33285L131.747 2.91813L130.668 8.00895L132.625 8.42367ZM132.725 4.12549H134.065V2.12549H132.725V4.12549ZM133.087 3.33469L134.179 8.4382L136.134 8.01981L135.043 2.91629L133.087 3.33469ZM136.15 8.34599L137.057 0.639933L135.071 0.405966L134.163 8.11202L136.15 8.34599ZM136.064 1.52295H137.315V-0.477051H136.064V1.52295ZM136.326 0.375224L134.91 9.85227L136.888 10.1477L138.304 0.670674L136.326 0.375224ZM135.899 9H134.687V11H135.899V9ZM135.662 9.77691L134.373 4.14654L132.423 4.59272L133.712 10.2231L135.662 9.77691ZM132.423 4.14758L131.141 9.77795L133.091 10.222L134.373 4.59168L132.423 4.14758ZM132.116 9H130.904V11H132.116V9ZM131.893 9.85227L130.477 0.375224L128.499 0.670674L129.915 10.1477L131.893 9.85227ZM141.491 1.65283L142.455 1.38428L141.491 -2.07081L140.528 1.38428L141.491 1.65283ZM140.139 6.50244L139.176 6.23389L138.822 7.50244H140.139V6.50244ZM142.843 6.50244V7.50244H144.16L143.807 6.23389L142.843 6.50244ZM140.717 0.522949V-0.477051H139.977L139.761 0.230259L140.717 0.522949ZM142.272 0.522949L143.228 0.230259L143.012 -0.477051H142.272V0.522949ZM145.173 10V11H146.525L146.129 9.70731L145.173 10ZM143.846 10L142.884 10.2721L143.09 11H143.846V10ZM143.148 7.53076L144.11 7.25866L143.904 6.53076H143.148V7.53076ZM139.828 7.53076V6.53076H139.068L138.865 7.26325L139.828 7.53076ZM139.143 10V11H139.903L140.106 10.2675L139.143 10ZM137.816 10L136.86 9.70731L136.464 11H137.816V10ZM140.528 1.38428L139.176 6.23389L141.103 6.771L142.455 1.92139L140.528 1.38428ZM140.139 7.50244H142.843V5.50244H140.139V7.50244ZM143.807 6.23389L142.455 1.38428L140.528 1.92139L141.88 6.771L143.807 6.23389ZM140.717 1.52295H142.272V-0.477051H140.717V1.52295ZM141.316 0.815639L144.217 10.2927L146.129 9.70731L143.228 0.230259L141.316 0.815639ZM145.173 9H143.846V11H145.173V9ZM144.809 9.72789L144.11 7.25866L142.186 7.80287L142.884 10.2721L144.809 9.72789ZM143.148 6.53076H139.828V8.53076H143.148V6.53076ZM138.865 7.26325L138.179 9.73248L140.106 10.2675L140.792 7.79828L138.865 7.26325ZM139.143 9H137.816V11H139.143V9ZM138.772 10.2927L141.673 0.815639L139.761 0.230259L136.86 9.70731L138.772 10.2927ZM147.039 0.522949V-0.477051H146.039V0.522949H147.039ZM148.327 0.522949H149.327V-0.477051H148.327V0.522949ZM148.327 8.9209H147.327V9.9209H148.327V8.9209ZM152.904 8.9209H153.904V7.9209H152.904V8.9209ZM152.904 10V11H153.904V10H152.904ZM147.039 10H146.039V11H147.039V10ZM147.039 1.52295H148.327V-0.477051H147.039V1.52295ZM147.327 0.522949V8.9209H149.327V0.522949H147.327ZM148.327 9.9209H152.904V7.9209H148.327V9.9209ZM151.904 8.9209V10H153.904V8.9209H151.904ZM152.904 9H147.039V11H152.904V9ZM148.039 10V0.522949H146.039V10H148.039ZM155.132 0.522949V-0.477051H154.132V0.522949H155.132ZM156.42 0.522949H157.42V-0.477051H156.42V0.522949ZM156.42 8.9209H155.42V9.9209H156.42V8.9209ZM160.997 8.9209H161.997V7.9209H160.997V8.9209ZM160.997 10V11H161.997V10H160.997ZM155.132 10H154.132V11H155.132V10ZM155.132 1.52295H156.42V-0.477051H155.132V1.52295ZM155.42 0.522949V8.9209H157.42V0.522949H155.42ZM156.42 9.9209H160.997V7.9209H156.42V9.9209ZM159.997 8.9209V10H161.997V8.9209H159.997ZM160.997 9H155.132V11H160.997V9ZM156.132 10V0.522949H154.132V10H156.132ZM163.111 0.522949V-0.477051H162.111V0.522949H163.111ZM168.735 0.522949H169.735V-0.477051H168.735V0.522949ZM168.735 1.60205V2.60205H169.735V1.60205H168.735ZM164.393 1.60205V0.602051H163.393V1.60205H164.393ZM164.393 4.15381H163.393V5.15381H164.393V4.15381ZM168.544 4.15381H169.544V3.15381H168.544V4.15381ZM168.544 5.23291V6.23291H169.544V5.23291H168.544ZM164.393 5.23291V4.23291H163.393V5.23291H164.393ZM164.393 8.9209H163.393V9.9209H164.393V8.9209ZM168.855 8.9209H169.855V7.9209H168.855V8.9209ZM168.855 10V11H169.855V10H168.855ZM163.111 10H162.111V11H163.111V10ZM163.111 1.52295H168.735V-0.477051H163.111V1.52295ZM167.735 0.522949V1.60205H169.735V0.522949H167.735ZM168.735 0.602051H164.393V2.60205H168.735V0.602051ZM163.393 1.60205V4.15381H165.393V1.60205H163.393ZM164.393 5.15381H168.544V3.15381H164.393V5.15381ZM167.544 4.15381V5.23291H169.544V4.15381H167.544ZM168.544 4.23291H164.393V6.23291H168.544V4.23291ZM163.393 5.23291V8.9209H165.393V5.23291H163.393ZM164.393 9.9209H168.855V7.9209H164.393V9.9209ZM167.855 8.9209V10H169.855V8.9209H167.855ZM168.855 9H163.111V11H168.855V9ZM164.111 10V0.522949H162.111V10H164.111ZM170.252 0.522949V-0.477051H169.252V0.522949H170.252ZM177.481 0.522949H178.481V-0.477051H177.481V0.522949ZM177.481 1.60205V2.60205H178.481V1.60205H177.481ZM174.517 1.60205V0.602051H173.517V1.60205H174.517ZM174.517 10V11H175.517V10H174.517ZM173.229 10H172.229V11H173.229V10ZM173.229 1.60205H174.229V0.602051H173.229V1.60205ZM170.252 1.60205H169.252V2.60205H170.252V1.60205ZM170.252 1.52295H177.481V-0.477051H170.252V1.52295ZM176.481 0.522949V1.60205H178.481V0.522949H176.481ZM177.481 0.602051H174.517V2.60205H177.481V0.602051ZM173.517 1.60205V10H175.517V1.60205H173.517ZM174.517 9H173.229V11H174.517V9ZM174.229 10V1.60205H172.229V10H174.229ZM173.229 0.602051H170.252V2.60205H173.229V0.602051ZM171.252 1.60205V0.522949H169.252V1.60205H171.252Z" fill="#00FF39"/>
</svg>
