<svg width="68" height="102" viewBox="0 0 68 102" fill="none" xmlns="http://www.w3.org/2000/svg">
<rect x="31.5" y="101.5" width="5" height="26" transform="rotate(180 31.5 101.5)" fill="#ECF5EE" stroke="#252926"/>
<rect x="21.5" y="101.5" width="5" height="5" transform="rotate(180 21.5 101.5)" fill="#ECF5EE" stroke="#252926"/>
<rect x="26.5" y="101.5" width="5" height="26" transform="rotate(180 26.5 101.5)" fill="#ECF5EE" stroke="#252926"/>
<rect x="0.5" y="45.5" width="31" height="35" fill="#ECF5EE" stroke="#252926"/>
<rect x="31.5" y="63.5" width="32" height="29" fill="#ECF5EE" stroke="#252926"/>
<rect x="16.5" y="21.5" width="5" height="24" fill="#ECF5EE" stroke="#252926"/>
<rect x="3.5" y="20.5" width="5" height="12" transform="rotate(-90 3.5 20.5)" fill="#ECF5EE" stroke="#252926"/>
<rect x="47.5" y="96.5" width="18" height="16" transform="rotate(-90 47.5 96.5)" fill="#ECF5EE" stroke="#252926"/>
<rect x="37.5" y="101.5" width="5" height="26" transform="rotate(-90 37.5 101.5)" fill="#ECF5EE" stroke="#252926"/>
<rect x="26.5" y="0.5" width="5" height="45" fill="#ECF5EE" stroke="#252926"/>
<rect y="52" width="10" height="12" fill="#252926"/>
<rect x="13" y="52" width="11" height="12" fill="#252926"/>
<rect x="10" y="66" width="4" height="4" fill="#252926"/>
<rect x="10" y="73" width="4" height="4" fill="#252926"/>
<rect x="1" y="58" width="3" height="3" fill="#ECF5EE"/>
<rect x="14" y="58" width="3" height="3" fill="#ECF5EE"/>
<rect x="26.5" y="101.5" width="5" height="5" transform="rotate(180 26.5 101.5)" fill="#ECF5EE" stroke="#252926"/>
<rect x="42.5" y="101.5" width="5" height="5" transform="rotate(180 42.5 101.5)" fill="#ECF5EE" stroke="#252926"/>
<rect x="56.5" y="56.5" width="3" height="3" transform="rotate(-90 56.5 56.5)" fill="#ECF5EE" stroke="#252926"/>
<rect x="56.5" y="59.5" width="3" height="3" transform="rotate(-90 56.5 59.5)" fill="#ECF5EE" stroke="#252926"/>
<rect x="60.5" y="63.5" width="3" height="3" transform="rotate(-90 60.5 63.5)" fill="#ECF5EE" stroke="#252926"/>
<rect x="64.5" y="56.5" width="3" height="3" transform="rotate(-90 64.5 56.5)" fill="#ECF5EE" stroke="#252926"/>
<rect x="64.5" y="59.5" width="3" height="3" transform="rotate(-90 64.5 59.5)" fill="#ECF5EE" stroke="#252926"/>
<rect x="60.5" y="52.5" width="3" height="3" transform="rotate(-90 60.5 52.5)" fill="#ECF5EE" stroke="#252926"/>
</svg>
