<svg width="54" height="54" viewBox="0 0 54 54" fill="none" xmlns="http://www.w3.org/2000/svg">
<rect width="54" height="54" fill="#04B188"/>
<rect width="54" height="51" fill="#04B188"/>
<rect y="9" width="54" height="19" fill="#8B62FF"/>
<rect x="27" width="27" height="54" fill="#F9A6A6"/>
<rect y="10" width="27" height="19" fill="white"/>
<rect y="15" width="13" height="12" fill="#00F0FF"/>
<rect y="15" width="13" height="3" fill="#04CDCD"/>
<rect x="27" y="10" width="27" height="19" fill="white"/>
<rect x="50" y="10" width="4" height="19" fill="#EBE5E5"/>
<rect x="23" y="10" width="4" height="19" fill="#E4E0E0"/>
<rect y="9" width="27" height="6" fill="#F9A6A6"/>
<rect x="27" y="9" width="27" height="6" fill="#04B188"/>
<rect x="26" y="27" width="28" height="4" fill="#04B188"/>
<rect x="12" y="39" width="25" height="3" fill="#252926"/>
<rect x="37" y="36" width="3" height="3" fill="#252926"/>
<rect y="27" width="27" height="4" fill="#F9A6A6"/>
<rect y="18" width="9" height="9" fill="black"/>
<rect x="27" y="15" width="13" height="12" fill="#00F0FF"/>
<rect x="27" y="18" width="9" height="9" fill="black"/>
<rect x="48" y="48" width="6" height="6" fill="#ECF5EE"/>
<rect y="48" width="6" height="6" fill="#ECF5EE"/>
<rect x="27" y="15" width="13" height="3" fill="#04CDCD"/>
</svg>
