<svg width="56" height="56" viewBox="0 0 56 56" fill="none" xmlns="http://www.w3.org/2000/svg">
<rect width="56" height="56" fill="#6590FF"/>
<rect width="30" height="26" fill="#00D0FE"/>
<rect x="26" y="30" width="30" height="26" fill="#00D0FE"/>
<rect x="12" y="12" width="32" height="32" fill="#FFE70E"/>
<rect x="12" y="12" width="16" height="32" fill="#FAFF00"/>
<rect x="8" y="40" width="4" height="4" fill="#FFC940"/>
<rect x="8" y="44" width="4" height="4" fill="#FFC940"/>
<rect x="4" y="48" width="4" height="4" fill="#FFC940"/>
<rect y="52" width="4" height="4" fill="#FFC940"/>
<rect x="44" y="36" width="4" height="4" fill="#FFC940"/>
<rect x="12" y="8" width="4" height="4" fill="#FAFF00"/>
<rect x="26" y="44" width="4" height="4" fill="#FAFF00"/>
<rect x="40" y="44" width="4" height="4" fill="#FAFF00"/>
<rect x="44" y="44" width="4" height="4" fill="#FAFF00"/>
<rect x="48" y="48" width="4" height="4" fill="#FAFF00"/>
<rect x="37" y="52" width="4" height="4" fill="#FFE70E"/>
<rect x="52" y="52" width="4" height="4" fill="#FAFF00"/>
<rect x="52" y="40" width="4" height="4" fill="#FFC940"/>
<rect x="26" y="48" width="4" height="4" fill="#FAFF00"/>
<rect x="22" y="52" width="4" height="4" fill="#FFC940"/>
<rect x="41" y="52" width="4" height="4" fill="#FAFF00"/>
<rect x="12" y="4" width="4" height="4" fill="#FAFF00"/>
<rect x="40" y="16" width="4" height="4" fill="#FAFF00"/>
<rect x="8" width="4" height="4" fill="#FFC940"/>
<rect x="33" y="8" width="4" height="4" fill="#FFC940"/>
<rect x="26" y="8" width="4" height="4" fill="#FFE70E"/>
<rect x="26" y="4" width="4" height="4" fill="#FFE70E"/>
<rect x="30" width="4" height="4" fill="#FFE70E"/>
<rect x="40" y="8" width="4" height="4" fill="#FFE70E"/>
<rect x="40" y="8" width="4" height="4" fill="#FFC940"/>
<rect x="12" y="33" width="4" height="7" fill="#FFE70E"/>
<rect x="12" y="16" width="4" height="4" fill="#FFE70E"/>
<rect x="40" y="36" width="4" height="4" fill="#FFE70E"/>
<rect x="12" y="20" width="4" height="4" fill="#FFE70E"/>
<rect x="44" y="26" width="4" height="4" fill="#FFE70E"/>
<rect x="44" y="16" width="4" height="4" fill="#FFE70E"/>
<rect x="48" y="12" width="4" height="4" fill="#FFE70E"/>
<rect x="52" y="12" width="4" height="4" fill="#FFE70E"/>
<rect x="48" y="30" width="4" height="4" fill="#FFE70E"/>
<rect x="52" y="30" width="4" height="4" fill="#FFC940"/>
<rect x="52" y="21" width="4" height="4" fill="#FFC940"/>
<rect x="33" y="44" width="4" height="4" fill="#FFC940"/>
<rect x="33" y="48" width="4" height="4" fill="#FFC940"/>
<rect x="8" y="26" width="4" height="4" fill="#FFE70E"/>
<rect x="8" y="33" width="4" height="4" fill="#FFE70E"/>
<rect x="4" y="33" width="4" height="4" fill="#FFE70E"/>
<rect y="37" width="4" height="4" fill="#FFE70E"/>
<rect x="16" y="44" width="4" height="4" fill="#FFE70E"/>
<rect x="12" y="48" width="4" height="4" fill="#FFE70E"/>
<rect x="12" y="52" width="4" height="4" fill="#FFE70E"/>
<rect x="8" y="16" width="4" height="4" fill="#FFE70E"/>
<rect x="4" y="12" width="4" height="4" fill="#FFE70E"/>
<rect y="8" width="4" height="4" fill="#FFE70E"/>
<rect width="4" height="4" fill="#FFE70E"/>
<rect x="4" y="22" width="4" height="4" fill="#FFE70E"/>
<rect y="22" width="4" height="4" fill="#FFE70E"/>
<rect x="19" width="4" height="4" fill="#FFE70E"/>
<rect x="19" y="8" width="4" height="4" fill="#FFE70E"/>
<rect x="44" y="4" width="4" height="4" fill="#FFC940"/>
<rect x="48" y="4" width="4" height="4" fill="#FFE70E"/>
<rect x="52" width="4" height="4" fill="#FFE70E"/>
<rect x="40" width="4" height="4" fill="#FFE70E"/>
<rect x="40" y="12" width="4" height="4" fill="#6590FF"/>
<rect x="12" y="12" width="4" height="4" fill="#5BE2FF"/>
<rect x="12" y="40" width="4" height="4" fill="#6590FF"/>
<rect x="40" y="40" width="4" height="4" fill="#ACC8FF"/>
<rect x="19" y="31" width="3" height="3" fill="#252926"/>
<rect x="34" y="31" width="3" height="3" fill="#252926"/>
<rect x="33" y="20" width="3" height="6" fill="#252926"/>
<rect x="20" y="26" width="6" height="3" transform="rotate(-90 20 26)" fill="#252926"/>
<rect x="22" y="34" width="12" height="3" fill="#252926"/>
</svg>
