<svg width="54" height="54" viewBox="0 0 54 54" fill="none" xmlns="http://www.w3.org/2000/svg">
<rect width="54" height="54" fill="#F0DD35"/>
<rect width="27" height="54" fill="#8B62FF"/>
<rect x="10" width="36" height="4" fill="#EDAF53"/>
<rect x="16" y="4" width="24" height="4" fill="#EDAF53"/>
<rect x="16" y="47" width="24" height="4" fill="#EDAF53"/>
<rect x="16" y="6" width="24" height="6" fill="#C0FEF3"/>
<rect x="36" y="6" width="4" height="6" fill="#59BBD5"/>
<rect x="18" y="6" width="2" height="6" fill="white"/>
<rect x="18" y="12" width="20" height="6" fill="#C0FEF3"/>
<rect x="21" y="18" width="14" height="6" fill="#C0FEF3"/>
<rect x="40" y="48" width="24" height="6" transform="rotate(180 40 48)" fill="#C0FEF3"/>
<rect x="38" y="42" width="20" height="6" transform="rotate(180 38 42)" fill="#C0FEF3"/>
<rect x="35" y="36" width="14" height="6" transform="rotate(180 35 36)" fill="#C0FEF3"/>
<rect x="25" y="21" width="6" height="6" fill="#C0FEF3"/>
<rect x="31" y="33" width="6" height="6" transform="rotate(180 31 33)" fill="#C0FEF3"/>
<rect x="10" y="50" width="36" height="4" fill="#EDAF53"/>
<rect x="34" y="12" width="4" height="6" fill="#59BBD5"/>
<rect x="36" y="42" width="4" height="6" fill="#59BBD5"/>
<rect x="34" y="36" width="4" height="6" fill="#59BBD5"/>
<rect x="31" y="30" width="4" height="6" fill="#59BBD5"/>
<rect x="31" y="18" width="4" height="6" fill="#59BBD5"/>
<rect x="27" y="24" width="4" height="6" fill="#59BBD5"/>
<rect x="23" y="30" width="2" height="6" fill="white"/>
<rect x="20" y="36" width="2" height="6" fill="white"/>
<rect x="31" y="16" width="3" height="6" fill="#034AFF"/>
<rect x="27" y="15" width="4" height="9" fill="#034AFF"/>
<rect x="31" y="12" width="3" height="4" fill="#034AFF"/>
<rect x="23" y="18" width="8" height="5" fill="#034AFF"/>
<rect x="27" y="23" width="2" height="7" fill="#034AFF"/>
<rect x="18" y="46" width="18" height="2" fill="#034AFF"/>
<rect x="22" y="44" width="12" height="2" fill="#034AFF"/>
<rect x="27" y="40" width="2" height="2" fill="#034AFF"/>
<rect x="25" y="42" width="6" height="2" fill="#034AFF"/>
<rect x="27" y="36" width="2" height="2" fill="#034AFF"/>
<rect x="29" y="38" width="2" height="2" fill="#034AFF"/>
<rect x="27" y="32" width="2" height="2" fill="#034AFF"/>
<rect x="20" y="12" width="2" height="6" fill="white"/>
<rect x="18" y="42" width="2" height="4" fill="white"/>
</svg>
